<svg width="116" height="116" viewBox="0 0 116 116" fill="none" xmlns="http://www.w3.org/2000/svg">
<path d="M57.9169 57.9176C30.973 59.0305 30.0713 59.9322 28.9583 86.8761C27.8453 59.9322 26.9437 59.0305 -0.000244141 57.9176C26.9437 56.8046 27.8453 55.9029 28.9583 28.959C30.0713 55.9029 30.973 56.8046 57.9169 57.9176Z" fill="#FCF9F1"/>
<path d="M115.834 57.9176C88.8902 59.0305 87.9885 59.9322 86.8756 86.8761C85.7626 59.9322 84.8609 59.0305 57.917 57.9176C84.8609 56.8046 85.7626 55.9029 86.8756 28.959C87.9885 55.9029 88.8902 56.8046 115.834 57.9176Z" fill="#FCF9F1"/>
<path d="M86.8754 28.9586C59.9315 30.0716 59.0298 30.9732 57.9168 57.9172C56.8039 30.9732 55.9022 30.0716 28.9583 28.9586C55.9022 27.8456 56.8039 26.9439 57.9168 0C59.0298 26.9439 59.9315 27.8456 86.8754 28.9586Z" fill="#FCF9F1"/>
<path d="M86.8754 86.8765C59.9315 87.9895 59.0298 88.8912 57.9168 115.835C56.8039 88.8912 55.9022 87.9895 28.9583 86.8765C55.9022 85.7636 56.8039 84.8619 57.9168 57.918C59.0298 84.8619 59.9315 85.7636 86.8754 86.8765Z" fill="#FCF9F1"/>
</svg>
