<svg width="132" height="116" viewBox="0 0 132 116" fill="none" xmlns="http://www.w3.org/2000/svg">
<path d="M95.5755 55.4022C68.0064 56.5041 67.0875 57.423 65.9857 84.9919C64.882 57.4229 63.963 56.5039 36.3939 55.4002C63.9629 54.2984 64.8818 53.3795 65.9836 25.8105C67.0874 53.3795 68.0064 54.2985 95.5755 55.4022Z" fill="#FCF9F1"/>
<path d="M116.405 55.1579C116.405 42.4149 103.416 31.632 85.0367 27.0978C108.195 31.142 124.859 42.2927 124.798 55.4645C124.799 70.168 103.724 82.5427 76.0328 84.8697C99.0682 82.0524 116.406 69.8614 116.405 55.1579Z" fill="#FCF9F1"/>
<path d="M46.991 27.157C28.5505 31.6287 15.5628 42.5333 15.6245 55.215C15.625 69.9184 32.9633 82.1106 55.9989 84.9296C28.3072 82.4781 7.23179 70.2245 7.23128 55.521C7.1083 42.2879 23.7719 31.1384 46.991 27.157Z" fill="#FCF9F1"/>
</svg>
