<svg width="148" height="107" viewBox="0 0 148 107" fill="none" xmlns="http://www.w3.org/2000/svg">
<g clip-path="url(#clip0_326_662)">
<path d="M139.294 12.9023C139.75 14.0366 140.094 15.2042 140.401 16.2533C150.153 49.6445 131.345 67.6827 109.19 67.3117L109.342 67.3938C142.651 75.1509 159.315 47.6041 139.297 12.9023H139.294Z" fill="#FCF9F1"/>
<path d="M131.128 45.2704C120.327 40.0918 110.052 45.2643 103.238 48.667C100.474 50.1053 95.8638 52.5045 95.5689 50.0901C94.5259 41.518 130.514 24.1458 128.765 9.77794C126.88 -5.69982 99.2695 2.04514 89.3261 18.1007C85.7683 10.2675 78.9508 2.82663 70.7071 1.10553C61.8949 -0.734164 56.9931 3.71151 55.6277 10.2584C53.5904 20.0225 61.2533 30.939 73.1489 37.647L73.2432 37.5862C73.2432 37.5649 73.2432 37.5436 73.2462 37.5224C65.0877 32.0884 59.5473 24.234 61.0373 16.4829C62.2111 10.2675 67.2619 8.09029 72.7141 9.35223C81.6206 11.3348 85.7653 20.6489 84.6219 26.1254C84.2996 27.6701 83.5668 28.932 82.4204 29.677C80.7875 30.7413 78.9021 30.3856 78.1693 30.2487C76.509 29.9325 75.2866 29.081 74.4899 28.3421C74.0368 27.9225 73.7236 27.5394 73.5503 27.3143C73.5503 31.3373 73.453 34.7035 73.2462 37.5224C73.2614 37.5315 73.2766 37.5436 73.2918 37.5528L73.2402 37.5862C72.1303 52.4588 67.8944 52.0149 58.328 51.9693C58.3797 51.3611 58.3736 50.756 58.3006 50.1478C57.9783 47.4932 56.245 46.3559 54.3141 46.5901C51.8997 46.885 47.6486 50.2208 44.6261 52.5501C36.9115 58.6348 26.8555 66.6017 16.912 62.4206C27.713 67.5991 37.988 62.4266 44.8024 59.024C47.5665 57.5857 52.1764 55.1865 52.4714 57.6009C53.5144 66.1729 17.5263 83.5451 19.2748 97.913C21.1601 113.391 48.7707 105.646 58.7142 89.5903C62.2719 97.4234 69.0894 104.864 77.3331 106.585C86.1454 108.425 91.0472 103.979 92.4125 97.4325C94.4499 87.6685 86.787 76.7519 74.8913 70.0439L74.797 70.1047C74.797 70.126 74.797 70.1473 74.794 70.1686C82.9525 75.6025 88.4929 83.4569 87.0029 91.208C85.8291 97.4234 80.7783 99.6006 75.3261 98.3387C66.4196 96.3561 62.275 87.0421 63.4183 81.5656C63.7406 80.0208 64.4735 78.7589 65.6199 78.0139C67.2528 76.9496 69.1381 77.3054 69.8709 77.4422C71.5312 77.7584 72.7536 78.6099 73.5503 79.3458C73.5503 79.218 73.5503 79.0934 73.5503 78.9687C71.6224 76.2168 67.3045 70.719 62.9956 69.9162C62.4361 69.8128 61.384 69.6395 60.2255 70.0621C58.2276 70.7889 56.9079 72.8992 56.3423 75.6086C55.5365 79.4765 56.4488 84.4999 58.6321 89.3896C51.0057 101.17 28.6891 105.749 27.1687 93.2697C25.5936 80.3523 51.626 68.0582 57.288 55.7004C57.4188 55.4145 57.5434 55.1287 57.6499 54.8428C57.9023 54.1769 58.0908 53.5079 58.2094 52.842C69.059 52.9241 73.1033 54.7364 73.5169 76.3901C73.5169 76.53 73.5229 76.6638 73.526 76.8067C73.526 76.9131 73.526 77.0195 73.5321 77.126C73.5351 77.4088 73.5412 77.6915 73.5442 77.9804C73.5442 78.0048 73.5442 78.0321 73.5442 78.0564C73.5473 78.3575 73.5503 78.6585 73.5534 78.9657C74.0156 79.6225 74.3409 80.1242 74.496 80.3675C74.496 54.5388 78.4825 52.8694 90.3995 52.839C89.8065 54.405 89.5541 55.968 89.7457 57.537C90.068 60.1916 91.8013 61.3289 93.7322 61.0948C96.1466 60.7998 100.398 57.464 103.42 55.1348C111.135 49.0501 121.191 41.0832 131.134 45.2643L131.128 45.2704ZM90.7553 51.9845V51.9662C78.7775 51.9662 74.6389 53.3498 74.493 28.7192C76.4208 31.4711 80.7388 36.9689 85.0476 37.7717C85.6072 37.8751 86.6593 38.0484 87.8178 37.6257C89.8157 36.899 91.1354 34.7887 91.701 32.0793C92.5068 28.2114 91.5945 23.1879 89.4112 18.2983C97.0376 6.51818 119.354 1.93871 120.875 14.4182C122.45 27.3356 96.4173 39.6296 90.7553 51.9875V51.9845Z" fill="#FCF9F1"/>
<path d="M38.85 40.3817L38.698 40.2996C5.38888 32.5395 -11.2748 60.0893 8.7429 94.7881C8.28678 93.6538 7.94317 92.4861 7.63605 91.4371C-2.11586 58.0458 16.6916 40.0077 38.85 40.3817Z" fill="#FCF9F1"/>
</g>
<defs>
<clipPath id="clip0_326_662">
<rect width="147.863" height="106.31" fill="white" transform="translate(0.0855713 0.689453)"/>
</clipPath>
</defs>
</svg>
