<svg width="116" height="116" viewBox="0 0 116 116" fill="none" xmlns="http://www.w3.org/2000/svg">
<path d="M104.005 74.3517C100.309 80.7526 86.6399 79.7298 73.4468 72.1128C66.2647 67.9662 60.7647 62.7092 57.7901 57.7653C59.8303 64.1472 66.7742 71.5909 76.4543 77.1798C90.5062 85.2926 105.104 86.3308 109.025 79.5395C112.224 73.9972 107.467 65.1099 98.1089 57.5212C103.963 63.6072 106.529 69.9803 104.05 74.2736L104.005 74.3517Z" fill="#FCF9F1"/>
<path d="M78.8015 102.629C71.6622 104.542 62.7196 94.1535 58.7767 79.4384C56.6303 71.4279 56.4585 63.8215 57.851 58.2223C54.7809 64.1776 54.4275 74.3512 57.3205 85.148C61.52 100.821 71.1079 111.877 78.6826 109.847C84.8642 108.191 87.7846 98.5427 86.5333 86.5594C86.3694 95.0023 83.6772 101.323 78.8886 102.606L78.8015 102.629Z" fill="#FCF9F1"/>
<path d="M41.4335 104.006C35.0325 100.31 36.0553 86.6404 43.6724 73.4473C47.8189 66.2652 53.076 60.7652 58.0199 57.7906C51.6379 59.8308 44.1942 66.7747 38.6054 76.4548C30.4925 90.5067 29.4544 105.104 36.2457 109.025C41.788 112.225 50.6753 107.468 58.264 98.1094C52.178 103.964 45.8049 106.529 41.5115 104.051L41.4335 104.006Z" fill="#FCF9F1"/>
<path d="M13.5888 79.3518C11.6758 72.2125 22.0648 63.2699 36.7798 59.327C44.7904 57.1806 52.3968 57.0088 57.996 58.4013C52.0406 55.3312 41.8671 54.9778 31.0703 57.8708C15.3974 62.0703 4.34142 71.6582 6.37104 79.2329C8.0274 85.4145 17.6756 88.3349 29.6589 87.0836C21.2159 86.9197 14.8952 84.2275 13.6121 79.4389L13.5888 79.3518Z" fill="#FCF9F1"/>
<path d="M11.8248 41.7987C15.5204 35.3978 29.1899 36.4205 42.3831 44.0376C49.5651 48.1842 55.0652 53.4412 58.0397 58.3851C55.9995 52.0032 49.0557 44.5594 39.3755 38.9706C25.3236 30.8578 10.7262 29.8196 6.80525 36.6109C3.6054 42.1532 8.36264 51.0405 17.7209 58.6292C11.8667 52.5432 9.301 46.1701 11.7798 41.8768L11.8248 41.7987Z" fill="#FCF9F1"/>
<path d="M36.6391 14.4291C43.7785 12.5161 52.7211 22.9051 56.664 37.6202C58.8104 45.6307 58.9822 53.2371 57.5897 58.8363C60.6598 52.881 61.0132 42.7074 58.1202 31.9106C53.9207 16.2378 44.3328 5.18175 36.7581 7.21138C30.5765 8.86774 27.6561 18.5159 28.9073 30.4992C29.0713 22.0563 31.7635 15.7355 36.5521 14.4524L36.6391 14.4291Z" fill="#FCF9F1"/>
<path d="M73.9874 11.8246C80.3884 15.5202 79.3656 29.1897 71.7485 42.3828C67.602 49.5649 62.3449 55.0649 57.401 58.0395C63.783 55.9993 71.2267 49.0554 76.8155 39.3753C84.9284 25.3234 85.9665 10.7259 79.1752 6.805C73.6329 3.60516 64.7456 8.36239 57.1569 17.7206C63.2429 11.8665 69.616 9.30075 73.9093 11.7795L73.9874 11.8246Z" fill="#FCF9F1"/>
<path d="M101.788 37.1911C103.701 44.3305 93.3124 53.2731 78.5974 57.216C70.5868 59.3624 62.9804 59.5342 57.3812 58.1417C63.3366 61.2118 73.5101 61.5652 84.3069 58.6722C99.9797 54.4727 111.036 44.8848 109.006 37.3101C107.35 31.1285 97.7016 28.2081 85.7183 29.4593C94.1613 29.6233 100.482 32.3155 101.765 37.1041L101.788 37.1911Z" fill="#FCF9F1"/>
</svg>
