<svg width="116" height="116" viewBox="0 0 116 116" fill="none" xmlns="http://www.w3.org/2000/svg">
<path d="M69.0941 63.8873C76.6416 58.4064 88.7714 57.8673 107.64 57.8673C88.7714 57.8673 76.6416 57.3282 69.0941 51.8473L105.753 10.0666L64.1523 46.5461C59.5699 39.2682 57.9525 27.4977 57.9525 8.17969C57.9525 27.4977 56.3352 39.358 51.7528 46.5461L10.0619 10.0666L46.6313 51.8473C39.0838 57.3282 26.9539 57.8673 8.08521 57.8673C26.9539 57.8673 39.0838 58.4064 46.6313 63.8873L10.0619 105.758L51.663 69.2784C56.2454 76.5563 57.8627 88.3268 57.8627 107.645C57.8627 88.3268 59.48 76.4665 64.0624 69.2784L105.663 105.758L69.0941 63.9772V63.8873Z" fill="#FCF9F1"/>
</svg>
