<svg width="116" height="116" viewBox="0 0 116 116" fill="none" xmlns="http://www.w3.org/2000/svg">
<path d="M60.137 44.6229C57.9225 41.7744 54.441 40.193 50.9596 39.2402C39.8819 37.0253 30.071 43.9894 25.0085 53.1684C15.1976 70.8928 22.7939 92.4186 39.2484 104.127C53.8076 114.254 72.1625 116.788 87.9835 109.824C82.2876 110.772 76.5916 111.724 70.8956 111.405C68.681 111.091 66.4664 111.091 64.2519 110.772C56.6556 109.19 49.6927 107.29 43.3633 102.226C42.0964 101.278 41.1487 100.325 39.8819 99.3776C28.4899 89.5651 23.1081 73.7413 28.8041 59.8132C32.2856 51.582 40.8295 44.6229 50.007 46.8378C39.2484 46.2043 31.6521 56.0168 30.3852 65.8294C29.7518 73.427 31.3329 81.0196 36.0812 87.6694C47.7924 104.127 68.3618 107.928 86.0832 101.598C92.4126 99.3826 97.7944 96.2149 102.857 91.785C108.553 86.4023 113.615 80.7054 115.83 73.427C111.715 78.8097 107.919 84.5067 102.223 88.9365C101.276 89.5701 100.323 90.2036 99.3755 91.1515C87.3501 99.3826 73.7436 102.545 60.1321 98.4298C48.7401 94.9478 38.9292 86.4023 37.0289 74.0606C36.0812 67.0965 37.9765 59.4989 44.6252 55.7026C37.6623 61.3995 37.3481 71.8456 41.7772 79.4432C48.4209 91.1564 62.0324 96.8534 75.3197 94.6335C93.6745 91.785 107.281 77.8569 112.029 60.1324C113.93 51.9013 114.244 43.9894 112.344 35.7632C112.029 33.229 111.396 30.3805 109.81 28.1656C111.391 36.0775 112.024 43.6751 110.757 51.9062C108.857 63.3002 103.795 73.7463 94.303 81.0246C93.0361 81.9725 91.455 82.9253 90.1881 83.8731C83.5444 87.6694 76.5815 89.8893 68.9852 89.2558C64.8704 88.9415 61.0747 87.6744 57.5933 86.093C50.3162 82.2967 44.9344 74.3798 46.8348 65.8344C46.2013 74.3798 52.85 81.3439 60.4413 84.1924C68.671 87.0409 77.5293 85.7738 85.1256 81.3439C91.1408 77.5476 95.8841 72.7985 99.3655 66.7822C105.381 55.069 105.695 41.7794 101.58 29.7519C96.8318 16.4573 86.7066 5.06342 73.4143 0C75.6289 1.90065 78.4769 3.48203 80.6915 5.38269C81.0057 6.01624 81.6391 6.33052 82.5918 6.96407C84.8063 9.179 87.0209 11.0797 88.9212 13.6089C89.5547 14.5567 90.1881 15.5095 91.1358 16.4573C96.1983 24.055 99.3655 31.9669 99.999 40.8266C100.947 52.8541 96.8367 64.8816 87.3401 72.7935C78.4769 80.3911 62.6558 82.2867 55.693 71.5264C61.7082 78.1712 71.8333 78.1712 79.4296 74.0606C88.607 68.9971 93.9887 59.1846 94.9364 49.0578C95.8841 34.4961 88.9212 20.5729 76.5816 11.7082C68.9853 6.32553 61.0747 3.47704 52.2165 2.52921C46.2013 1.89566 40.8245 2.21493 34.8093 3.47705C32.5948 4.1106 30.061 4.42488 28.1657 6.01125C30.066 6.01125 31.9614 5.3777 33.8617 5.06342C37.6574 4.74914 41.458 4.11558 45.2536 4.42987C57.2791 5.3777 68.9902 9.179 77.8484 18.0387C86.7066 26.8985 91.455 38.9309 88.607 51.587C86.3925 62.0331 76.8958 71.8456 65.823 68.9971C68.9853 69.3114 71.8382 68.6829 74.6862 67.0965C78.4819 64.8816 81.3299 61.7138 83.2302 57.9175C87.9785 48.1049 86.0782 37.3446 79.7488 28.1656C68.0376 12.0225 47.154 7.59263 29.7468 14.2374C16.4545 19.3008 5.06254 29.1134 0 42.408C5.06254 36.0775 9.49165 29.1134 16.7737 24.9978C17.4072 24.6835 17.4072 24.05 18.0406 23.7307C29.4326 16.4524 42.7249 13.2846 55.698 17.4002C63.9277 19.9344 71.2048 24.9978 75.6339 32.5904C80.6965 41.4552 80.6965 54.1112 71.519 60.1274C79.4296 52.8491 78.1627 39.8688 71.2048 31.9569C59.4936 18.348 39.8769 17.7145 25.0035 26.8935C4.43409 39.5545 -3.16222 66.7722 6.0152 87.9787C6.0152 86.0781 5.38175 83.8631 5.06752 81.9625C3.16719 68.3536 5.06752 54.7448 13.6115 43.3458C14.5592 42.0787 15.5118 41.1309 16.4595 39.8638L19.9409 36.3818C27.8515 29.1034 38.2958 25.3021 49.3735 26.8885C60.4513 28.4699 71.8432 37.9681 68.9952 49.9956C69.6287 39.2352 59.8178 31.3233 50.007 30.3705C42.4107 29.737 34.8193 31.3183 28.1707 36.0675C12.0304 47.7807 7.91552 68.3536 14.245 86.0781C19.3075 99.3727 29.1183 110.767 42.4106 115.83C38.615 112.982 34.8143 110.133 31.3329 106.965C30.6995 106.332 30.066 105.384 29.1184 104.75C18.0406 92.7229 12.6638 75.9462 17.4072 60.1225C20.8886 48.7285 29.4326 38.916 41.7722 37.0153C48.7351 36.0675 56.6456 37.9632 60.1271 44.6129L60.137 44.6229Z" fill="#FCF9F1"/>
</svg>
