<svg width="163" height="39" viewBox="0 0 163 39" fill="none" xmlns="http://www.w3.org/2000/svg">
<g clip-path="url(#clip0_2222_320)">
<path d="M51.8232 4.86523C51.9862 5.27066 52.109 5.68805 52.2188 6.06304C55.7046 17.9987 48.9819 24.4464 41.0625 24.3138L41.1168 24.3431C53.0232 27.1159 58.9796 17.2694 51.8243 4.86523H51.8232Z" fill="#FCF9F1"/>
<path d="M48.9045 16.4351C45.0437 14.5841 41.371 16.4329 38.9352 17.6492C37.9471 18.1633 36.2993 19.0209 36.1939 18.1579C35.8211 15.0938 48.685 8.88417 48.06 3.74839C47.3861 -1.78412 37.5167 0.984311 33.9624 6.72334C32.6907 3.92339 30.2538 1.26365 27.3071 0.648448C24.1572 -0.00914874 22.405 1.57995 21.917 3.92013C21.1888 7.41028 23.9278 11.3124 28.1799 13.7102L28.2136 13.6884C28.2136 13.6808 28.2136 13.6732 28.2147 13.6656C25.2985 11.7232 23.3181 8.91569 23.8507 6.14509C24.2702 3.92339 26.0756 3.14514 28.0245 3.59622C31.2081 4.3049 32.6896 7.63419 32.2809 9.59176C32.1657 10.1439 31.9038 10.595 31.494 10.8613C30.9103 11.2417 30.2364 11.1146 29.9745 11.0656C29.381 10.9526 28.944 10.6483 28.6593 10.3841C28.4973 10.2341 28.3854 10.0972 28.3234 10.0168C28.3234 11.4548 28.2886 12.658 28.2147 13.6656C28.2201 13.6689 28.2256 13.6732 28.231 13.6765L28.2125 13.6884C27.8158 19.0046 26.3017 18.8459 22.8822 18.8296C22.9007 18.6122 22.8985 18.3959 22.8724 18.1786C22.7572 17.2297 22.1376 16.8231 21.4474 16.9068C20.5844 17.0123 19.0649 18.2046 17.9845 19.0372C15.2269 21.2122 11.6324 24.06 8.07812 22.5654C11.9389 24.4165 15.6117 22.5676 18.0475 21.3513C19.0355 20.8372 20.6833 19.9796 20.7888 20.8426C21.1616 23.9067 8.29769 30.1164 8.92267 35.2522C9.59657 40.7847 19.466 38.0162 23.0202 32.2772C24.292 35.0772 26.7289 37.7369 29.6756 38.3521C32.8255 39.0097 34.5776 37.4206 35.0657 35.0804C35.7939 31.5903 33.0548 27.6882 28.8027 25.2904L28.769 25.3121C28.769 25.3197 28.769 25.3273 28.768 25.335C31.6842 27.2773 33.6646 30.0849 33.132 32.8555C32.7125 35.0772 30.9071 35.8554 28.9582 35.4043C25.7745 34.6956 24.293 31.3664 24.7017 29.4088C24.8169 28.8566 25.0789 28.4055 25.4887 28.1392C26.0724 27.7588 26.7463 27.886 27.0082 27.9349C27.6017 28.0479 28.0386 28.3523 28.3234 28.6153C28.3234 28.5697 28.3234 28.5251 28.3234 28.4805C27.6343 27.4969 26.0908 25.5317 24.5506 25.2447C24.3507 25.2078 23.9746 25.1458 23.5604 25.2969C22.8463 25.5567 22.3746 26.311 22.1724 27.2795C21.8844 28.6621 22.2105 30.4577 22.9909 32.2055C20.2649 36.4163 12.2878 38.0532 11.7444 33.5924C11.1813 28.9751 20.4866 24.5806 22.5105 20.1633C22.5572 20.0611 22.6018 19.959 22.6398 19.8568C22.73 19.6188 22.7974 19.3796 22.8398 19.1416C26.718 19.1709 28.1636 19.8187 28.3114 27.5588C28.3114 27.6088 28.3136 27.6566 28.3147 27.7077C28.3147 27.7458 28.3147 27.7838 28.3169 27.8219C28.318 27.9229 28.3201 28.024 28.3212 28.1273C28.3212 28.136 28.3212 28.1458 28.3212 28.1545C28.3223 28.2621 28.3234 28.3697 28.3245 28.4795C28.4897 28.7142 28.606 28.8936 28.6614 28.9805C28.6614 19.7481 30.0864 19.1514 34.3461 19.1405C34.1342 19.7003 34.044 20.259 34.1124 20.8198C34.2276 21.7687 34.8472 22.1752 35.5374 22.0915C36.4004 21.9861 37.92 20.7937 39.0004 19.9611C41.7579 17.7862 45.3524 14.9384 48.9067 16.4329L48.9045 16.4351ZM34.4733 18.8351V18.8285C30.1918 18.8285 28.7125 19.3231 28.6604 10.5189C29.3495 11.5026 30.8929 13.4678 32.4331 13.7547C32.6331 13.7917 33.0092 13.8536 33.4233 13.7026C34.1374 13.4428 34.6092 12.6884 34.8113 11.72C35.0994 10.3374 34.7733 8.54178 33.9929 6.79399C36.7189 2.58319 44.6959 0.946269 45.2394 5.40706C45.8024 10.0244 36.4972 14.4188 34.4733 18.8362V18.8351Z" fill="#FCF9F1"/>
<path d="M15.9175 14.6876L15.8632 14.6583C3.9569 11.8844 -1.99952 21.7321 5.15579 34.1351C4.99275 33.7297 4.86992 33.3123 4.76014 32.9373C1.27434 21.0017 7.99704 14.554 15.9175 14.6876Z" fill="#FCF9F1"/>
</g>
<path d="M160.025 33.2245C160.025 34.0902 160.28 34.5655 162.011 34.5655V34.8371H159.007V33.0038C158.412 34.226 157.326 35.0069 155.849 35.0069C153.507 35.0069 151.605 33.2075 151.605 30.5934C151.605 27.9792 153.507 26.1799 155.849 26.1799C156.868 26.1799 157.7 26.5533 158.311 27.1814L158.328 27.1984C158.345 27.2153 158.362 27.2323 158.379 27.2663C158.735 27.6397 159.007 27.7925 159.007 27.0965V24.5672C159.007 23.7015 158.752 23.2262 157.021 23.2262V22.9546H157.19H157.207C158.022 22.9546 159.584 22.9546 159.753 22.3435H160.025V33.2245ZM155.849 34.7353C157.801 34.7353 159.007 32.885 159.007 30.5934C159.007 28.3018 157.801 26.4515 155.849 26.4515C153.914 26.4515 152.743 28.3018 152.743 30.5934C152.743 32.885 153.914 34.7353 155.849 34.7353Z" fill="#FCF9F1"/>
<path d="M146.011 35.0057C143.651 35.0057 141.75 33.1385 141.75 30.5922C141.75 28.046 143.651 26.1787 146.011 26.1787C148.353 26.1787 150.255 28.046 150.255 30.5922C150.255 33.1385 148.353 35.0057 146.011 35.0057ZM146.011 34.7341C147.946 34.7341 149.117 32.8839 149.117 30.5922C149.117 28.3006 147.946 26.4503 146.011 26.4503C144.059 26.4503 142.887 28.3006 142.887 30.5922C142.887 32.8839 144.059 34.7341 146.011 34.7341Z" fill="#FCF9F1"/>
<path d="M136.323 35.0057C133.964 35.0057 132.062 33.1385 132.062 30.5922C132.062 28.046 133.964 26.1787 136.323 26.1787C138.666 26.1787 140.567 28.046 140.567 30.5922C140.567 33.1385 138.666 35.0057 136.323 35.0057ZM136.323 34.7341C138.258 34.7341 139.43 32.8839 139.43 30.5922C139.43 28.3006 138.258 26.4503 136.323 26.4503C134.371 26.4503 133.2 28.3006 133.2 30.5922C133.2 32.8839 134.371 34.7341 136.323 34.7341Z" fill="#FCF9F1"/>
<path d="M123.396 28.828V24.5672C123.396 23.7015 123.142 23.2262 121.41 23.2262V22.9546H121.58C122.395 22.9546 123.973 22.9546 124.143 22.3435H124.415V28.4715C124.415 33.0887 123.6 34.5486 124.568 34.5486C124.839 34.5486 125.348 34.1921 125.348 33.3943C125.348 32.0023 124.618 30.6104 124.618 28.811C124.618 27.3342 125.603 26.1799 127.08 26.1799C128.726 26.1799 130 26.8928 130 29.1166V33.2245C130 34.0902 130.254 34.5655 131.986 34.5655V34.8371H126.995V34.5655C128.726 34.5655 128.981 34.0902 128.981 33.2245V29.2863C128.981 27.1984 128.234 26.4515 127.08 26.4515C125.62 26.4515 124.89 27.6737 124.89 28.811C124.89 30.5255 125.62 32.0532 125.62 33.3943C125.62 34.7353 124.822 35.0069 124.262 35.0069C123.447 35.0069 123.023 34.4467 123.023 33.7677C123.023 33.0717 123.396 31.1536 123.396 28.828Z" fill="#FCF9F1"/>
<path d="M118.732 26.1787C120.209 26.1787 121.058 26.8577 121.058 27.8423C121.058 29.5907 118.511 30.2357 118.596 31.1185H118.325C118.189 30.049 120.039 29.6586 120.039 27.8423C120.039 27.1633 119.717 26.4503 118.732 26.4503C117.272 26.4503 116.542 27.6725 116.542 28.8098C116.542 30.5243 117.272 31.7126 117.272 33.3931C117.272 34.7341 116.474 35.0057 115.914 35.0057C115.1 35.0057 114.675 34.4456 114.675 33.7666C114.675 33.0706 115.049 31.1524 115.049 28.8268V27.9611C115.049 27.0954 114.794 26.6201 113.062 26.6201V26.3485H116.067V28.4703C116.067 33.0876 115.252 34.5474 116.22 34.5474C116.491 34.5474 117.001 34.1909 117.001 33.3931C117.001 31.6617 116.271 30.6092 116.271 28.8098C116.271 27.4179 117.255 26.1787 118.732 26.1787Z" fill="#FCF9F1"/>
<path d="M109.133 35.0057C106.434 35.0057 104.617 33.3082 104.617 30.5922C104.617 27.8762 106.603 26.1787 108.963 26.1787C110.609 26.1787 111.815 26.688 111.815 27.6895C111.815 30.032 106.535 29.37 106.535 29.8623C106.535 30.083 107.825 30.2188 109.183 30.3036C111.085 30.4225 112.545 30.9148 112.545 32.4934C112.545 33.5968 111.509 35.0057 109.133 35.0057ZM109.133 34.7341C111.492 34.7341 112.273 33.3252 112.273 32.4934C112.273 31.0675 110.83 30.6771 109.15 30.5583C108.012 30.4734 107.045 30.4055 106.569 30.2188C106.349 30.1339 106.264 30.0151 106.264 29.8623C106.264 29.7095 106.4 29.5737 106.603 29.5058C107.673 29.1833 110.796 29.37 110.796 27.6895C110.796 27.0105 110.134 26.4503 108.963 26.4503C107.011 26.4503 105.755 28.3006 105.755 30.5922C105.755 32.8839 106.841 34.7341 109.133 34.7341Z" fill="#FCF9F1"/>
<path d="M95.9509 28.828V24.5672C95.9509 23.7015 95.6963 23.2262 93.9648 23.2262V22.9546H94.1346C94.9494 22.9546 96.5281 22.9546 96.6978 22.3435H96.9694V28.4715C96.9694 33.0887 96.1546 34.5486 97.1222 34.5486C97.3938 34.5486 97.9031 34.1921 97.9031 33.3943C97.9031 32.0023 97.1731 30.6104 97.1731 28.811C97.1731 27.3342 98.1577 26.1799 99.6345 26.1799C101.281 26.1799 102.554 26.8928 102.554 29.1166V33.2245C102.554 34.0902 102.809 34.5655 104.54 34.5655V34.8371H99.5496V34.5655C101.281 34.5655 101.536 34.0902 101.536 33.2245V29.2863C101.536 27.1984 100.789 26.4515 99.6345 26.4515C98.1747 26.4515 97.4447 27.6737 97.4447 28.811C97.4447 30.5255 98.1747 32.0532 98.1747 33.3943C98.1747 34.7353 97.3768 35.0069 96.8167 35.0069C96.0018 35.0069 95.5775 34.4467 95.5775 33.7677C95.5775 33.0717 95.9509 31.1536 95.9509 28.828Z" fill="#FCF9F1"/>
<path d="M90.2178 27.0791C90.6422 29.0143 93.6129 30.4232 93.6129 32.7318C93.6129 34.005 92.7471 35.0065 91.3891 35.0065C90.116 35.0065 89.1484 34.5651 89.1484 32.6979V26.6208H87.7734V26.3492C89.1654 26.3492 89.8953 25.3816 89.8953 23.8708H90.1669V25.9248C90.1669 26.1116 90.2857 26.3492 90.6422 26.3492H92.9508V26.6208H90.6422C90.2857 26.6208 90.1839 26.8585 90.2178 27.0791ZM91.3891 34.7349C92.6113 34.7349 93.3413 33.8692 93.3413 32.7318C93.3413 30.8136 90.9987 29.4726 90.1669 27.7751V32.6979C90.1669 33.8013 90.4555 34.7349 91.3891 34.7349Z" fill="#FCF9F1"/>
<path d="M82.6084 35.0057C80.2489 35.0057 78.3477 33.1385 78.3477 30.5922C78.3477 28.046 80.2489 26.1787 82.6084 26.1787C84.951 26.1787 86.8522 28.046 86.8522 30.5922C86.8522 33.1385 84.951 35.0057 82.6084 35.0057ZM82.6084 34.7341C84.5436 34.7341 85.7148 32.8839 85.7148 30.5922C85.7148 28.3006 84.5436 26.4503 82.6084 26.4503C80.6563 26.4503 79.485 28.3006 79.485 30.5922C79.485 32.8839 80.6563 34.7341 82.6084 34.7341Z" fill="#FCF9F1"/>
<path d="M77.9955 22.9536V23.2252C76.264 23.2252 76.0094 23.7005 76.0094 24.5662V33.2235C76.0094 34.0892 76.264 34.5645 77.9955 34.5645V34.8362H73.0048V34.5645C74.7362 34.5645 74.9909 34.0892 74.9909 33.2235V23.7684L70.9678 35.0908H70.6792L66.6561 24.074V33.2235C66.6561 34.0892 66.9107 34.5645 68.6422 34.5645V34.8362H64.3984V34.5645C66.1299 34.5645 66.3845 34.0892 66.3845 33.2235V24.5662C66.3845 23.7005 66.1299 23.2252 64.3984 23.2252V22.9536H67.403L71.2224 33.58L74.9909 22.9536H77.9955Z" fill="#FCF9F1"/>
<path d="M157.39 16.0297C154.691 16.0297 152.875 14.3322 152.875 11.6162C152.875 8.90014 154.861 7.20264 157.221 7.20264C158.867 7.20264 160.072 7.71189 160.072 8.71342C160.072 11.056 154.793 10.3939 154.793 10.8862C154.793 11.1069 156.083 11.2427 157.441 11.3276C159.342 11.4464 160.802 11.9387 160.802 13.5174C160.802 14.6207 159.767 16.0297 157.39 16.0297ZM157.39 15.7581C159.75 15.7581 160.531 14.3491 160.531 13.5174C160.531 12.0915 159.088 11.701 157.407 11.5822C156.27 11.4973 155.302 11.4294 154.827 11.2427C154.606 11.1578 154.522 11.039 154.522 10.8862C154.522 10.7334 154.657 10.5976 154.861 10.5297C155.931 10.2072 159.054 10.3939 159.054 8.71342C159.054 8.03441 158.392 7.47424 157.221 7.47424C155.268 7.47424 154.012 9.32452 154.012 11.6162C154.012 13.9078 155.099 15.7581 157.39 15.7581Z" fill="#FCF9F1"/>
<path d="M143.215 7.64367V7.37207H148.121V7.64367C146.202 7.64367 146.084 7.9662 146.474 8.93377L148.324 13.517C148.579 14.1451 148.817 14.3658 149.428 12.9229L151.193 8.74705C151.533 7.9662 151.295 7.64367 148.986 7.64367V7.37207H153.638V7.64367C152.195 7.64367 151.821 8.00015 151.567 8.59427L148.443 15.8596H148.172L145.269 8.59427C145.031 8.00015 144.658 7.64367 143.215 7.64367Z" fill="#FCF9F1"/>
<path d="M141.319 5.42098C140.861 5.42098 140.504 5.0645 140.504 4.60618C140.504 4.16483 140.861 3.80835 141.319 3.80835C141.76 3.80835 142.117 4.16483 142.117 4.60618C142.117 5.0645 141.76 5.42098 141.319 5.42098ZM142.083 7.37311V14.248C142.083 15.1137 142.337 15.589 144.069 15.589V15.8606H139.078V15.589C140.81 15.589 141.064 15.1137 141.064 14.248V8.98574C141.064 8.12001 140.81 7.64471 139.078 7.64471V7.37311H142.083Z" fill="#FCF9F1"/>
<path d="M135.679 8.1033C136.103 10.0385 139.074 11.4474 139.074 13.756C139.074 15.0291 138.208 16.0307 136.85 16.0307C135.577 16.0307 134.609 15.5893 134.609 13.722V7.64498H133.234V7.37338C134.626 7.37338 135.356 6.4058 135.356 4.89502H135.628V6.949C135.628 7.13573 135.747 7.37338 136.103 7.37338H138.412V7.64498H136.103C135.747 7.64498 135.645 7.88263 135.679 8.1033ZM136.85 15.7591C138.072 15.7591 138.802 14.8933 138.802 13.756C138.802 11.8378 136.46 10.4968 135.628 8.79928V13.722C135.628 14.8254 135.916 15.7591 136.85 15.7591Z" fill="#FCF9F1"/>
<path d="M132.174 9.91864V14.2473C132.174 15.113 132.428 15.5883 134.16 15.5883V15.8599H131.155V14.0096C130.663 15.2828 129.627 16.0297 128.1 16.0297C126.555 16.0297 125.129 15.2828 125.129 13.8399C125.129 10.7334 130.374 11.3106 130.374 10.8862C130.374 10.4788 126.843 10.9371 126.843 8.88317C126.843 7.86466 128.032 7.20264 129.424 7.20264C131.41 7.20264 132.174 8.17021 132.174 9.91864ZM128.1 15.7581C130.001 15.7581 131.155 14.434 131.155 12.3121V10.2581C131.155 8.84922 131.104 7.47424 129.424 7.47424C128.167 7.47424 127.794 8.06836 127.794 8.83224C127.794 10.1393 129.288 10.2921 130.103 10.4958C130.425 10.5807 130.646 10.6655 130.646 10.8862C130.646 11.0729 130.476 11.1748 130.204 11.2427C129.067 11.5143 126.266 11.6331 126.266 13.8399C126.266 14.8075 126.674 15.7581 128.1 15.7581Z" fill="#FCF9F1"/>
<path d="M123.486 7.20264C124.963 7.20264 125.812 7.88164 125.812 8.86619C125.812 10.6146 123.265 11.2597 123.35 12.1424H123.079C122.943 11.0729 124.793 10.6825 124.793 8.86619C124.793 8.18719 124.471 7.47424 123.486 7.47424C122.026 7.47424 121.296 8.69644 121.296 9.83377C121.296 11.5483 122.026 12.7365 122.026 14.417C122.026 15.7581 121.228 16.0297 120.668 16.0297C119.853 16.0297 119.429 15.4695 119.429 14.7905C119.429 14.0945 119.802 12.1763 119.802 9.85075V8.98502C119.802 8.11929 119.548 7.64399 117.816 7.64399V7.37239H120.821V9.49427C120.821 14.1115 120.006 15.5713 120.974 15.5713C121.245 15.5713 121.755 15.2149 121.755 14.417C121.755 12.6856 121.025 11.6331 121.025 9.83377C121.025 8.44182 122.009 7.20264 123.486 7.20264Z" fill="#FCF9F1"/>
<path d="M114.566 16.0297C111.867 16.0297 110.051 14.3322 110.051 11.6162C110.051 8.90014 112.037 7.20264 114.396 7.20264C116.043 7.20264 117.248 7.71189 117.248 8.71342C117.248 11.056 111.969 10.3939 111.969 10.8862C111.969 11.1069 113.259 11.2427 114.617 11.3276C116.518 11.4464 117.978 11.9387 117.978 13.5174C117.978 14.6207 116.943 16.0297 114.566 16.0297ZM114.566 15.7581C116.926 15.7581 117.707 14.3491 117.707 13.5174C117.707 12.0915 116.264 11.701 114.583 11.5822C113.446 11.4973 112.478 11.4294 112.003 11.2427C111.782 11.1578 111.697 11.039 111.697 10.8862C111.697 10.7334 111.833 10.5976 112.037 10.5297C113.106 10.2072 116.23 10.3939 116.23 8.71342C116.23 8.03441 115.568 7.47424 114.396 7.47424C112.444 7.47424 111.188 9.32452 111.188 11.6162C111.188 13.9078 112.275 15.7581 114.566 15.7581Z" fill="#FCF9F1"/>
<path d="M108.668 10.1393V14.2473C108.668 15.113 108.922 15.5883 110.654 15.5883V15.8599H105.663V15.5883C107.394 15.5883 107.649 15.113 107.649 14.2473V10.3091C107.649 8.22114 106.902 7.47424 105.748 7.47424C104.288 7.47424 103.558 8.69644 103.558 9.83377C103.558 11.5483 104.288 13.076 104.288 14.417C104.288 15.7581 103.49 16.0297 102.93 16.0297C102.115 16.0297 101.691 15.4695 101.691 14.7905C101.691 14.0945 102.064 12.1763 102.064 9.85075V8.98502C102.064 8.11929 101.81 7.64399 100.078 7.64399V7.37239H103.083V9.49427C103.083 14.1115 102.268 15.5713 103.235 15.5713C103.507 15.5713 104.016 15.2149 104.016 14.417C104.016 13.0251 103.286 11.6331 103.286 9.83377C103.286 8.40787 104.271 7.20264 105.748 7.20264C107.394 7.20264 108.668 7.91559 108.668 10.1393Z" fill="#FCF9F1"/>
<path d="M96.824 16.0297C94.1249 16.0297 92.3086 14.3322 92.3086 11.6162C92.3086 8.90014 94.2947 7.20264 96.6542 7.20264C98.3008 7.20264 99.506 7.71189 99.506 8.71342C99.506 11.056 94.2268 10.3939 94.2268 10.8862C94.2268 11.1069 95.5169 11.2427 96.8749 11.3276C98.7761 11.4464 100.236 11.9387 100.236 13.5174C100.236 14.6207 99.2005 16.0297 96.824 16.0297ZM96.824 15.7581C99.1835 15.7581 99.9643 14.3491 99.9643 13.5174C99.9643 12.0915 98.5215 11.701 96.8409 11.5822C95.7036 11.4973 94.736 11.4294 94.2607 11.2427C94.0401 11.1578 93.9552 11.039 93.9552 10.8862C93.9552 10.7334 94.091 10.5976 94.2947 10.5297C95.3641 10.2072 98.4875 10.3939 98.4875 8.71342C98.4875 8.03441 97.8255 7.47424 96.6542 7.47424C94.7021 7.47424 93.4459 9.32452 93.4459 11.6162C93.4459 13.9078 94.5323 15.7581 96.824 15.7581Z" fill="#FCF9F1"/>
<path d="M88.3553 14.0945C89.8831 14.0945 91.971 14.7226 91.971 16.8275C91.971 18.7117 90.0698 19.6114 87.7102 19.6114C85.0961 19.6114 83.789 18.4062 83.789 16.9293C83.789 16.0297 84.1625 15.4355 84.7226 14.8923C84.6038 14.9093 84.485 14.9093 84.3662 14.9093C84.0097 14.9093 83.3477 14.7735 83.3477 14.0606C83.3477 13.1948 84.5359 13.1779 85.809 13.2797C84.7226 12.7705 83.9927 11.752 83.9927 10.4109C83.9927 8.42484 85.7751 7.20264 87.5914 7.20264C88.542 7.20264 89.4757 7.54214 90.1716 8.15324C90.596 7.59306 91.0543 7.20264 91.4108 7.20264C92.2935 7.20264 91.8352 8.35694 92.1747 9.17174H91.9031C91.6654 8.50972 91.937 7.83071 91.309 7.83071C91.0713 7.83071 90.7318 8.00046 90.3753 8.35694C90.8676 8.88317 91.1732 9.57914 91.1732 10.4109C91.1732 12.414 89.5605 13.6532 87.5914 13.6532C87.4726 13.6532 87.3707 13.6532 87.2519 13.6362C86.1316 13.5683 84.3662 13.2458 84.3662 14.0606C84.3662 15.1979 86.3353 14.0945 88.3553 14.0945ZM85.0452 10.4109C85.0452 12.0915 86.0637 13.3816 87.5914 13.3816C89.1022 13.3816 90.0698 12.0915 90.0698 10.4109C90.0698 8.74737 89.1022 7.47424 87.5914 7.47424C86.0637 7.47424 85.0452 8.74737 85.0452 10.4109ZM87.7102 19.3398C89.4247 19.3398 90.8676 18.525 90.8676 16.8275C90.8676 15.2318 89.5775 14.3661 88.3553 14.3661C86.9633 14.3661 86.1146 14.7226 85.0961 14.8584C84.502 15.4016 84.0606 16.0127 84.0606 16.9293C84.0606 18.3043 85.3507 19.3398 87.7102 19.3398Z" fill="#FCF9F1"/>
<path d="M79.2497 16.0297C76.5507 16.0297 74.7344 14.3322 74.7344 11.6162C74.7344 8.90014 76.7205 7.20264 79.08 7.20264C80.7266 7.20264 81.9318 7.71189 81.9318 8.71342C81.9318 11.056 76.6526 10.3939 76.6526 10.8862C76.6526 11.1069 77.9427 11.2427 79.3007 11.3276C81.2019 11.4464 82.6617 11.9387 82.6617 13.5174C82.6617 14.6207 81.6262 16.0297 79.2497 16.0297ZM79.2497 15.7581C81.6093 15.7581 82.3901 14.3491 82.3901 13.5174C82.3901 12.0915 80.9472 11.701 79.2667 11.5822C78.1294 11.4973 77.1618 11.4294 76.6865 11.2427C76.4658 11.1578 76.381 11.039 76.381 10.8862C76.381 10.7334 76.5168 10.5976 76.7205 10.5297C77.7899 10.2072 80.9133 10.3939 80.9133 8.71342C80.9133 8.03441 80.2513 7.47424 79.08 7.47424C77.1279 7.47424 75.8717 9.32452 75.8717 11.6162C75.8717 13.9078 76.9581 15.7581 79.2497 15.7581Z" fill="#FCF9F1"/>
<path d="M73.3952 13.2132C72.7162 14.9446 73.4631 15.5897 74.8211 15.5897V15.8613H72.3597C71.6977 15.8613 71.6638 14.4524 72.3258 13.0944C73.1406 11.3969 73.7008 10.2426 69.44 9.58053L68.4215 9.42775C68.0141 9.34288 67.8444 9.20708 67.8444 9.00338C67.8444 8.83362 67.9802 8.69782 68.1839 8.6469C69.1854 8.39227 71.8675 8.46017 71.8675 6.30434C71.8675 4.79356 71.1206 4.25036 69.4231 4.25036H68.2857C67.6746 4.25036 67.403 4.35221 67.403 4.84449V14.2487C67.403 15.1144 67.6576 15.5897 69.3891 15.5897V15.8613H64.3984V15.5897C66.1299 15.5897 66.3845 15.1144 66.3845 14.2487V5.59139C66.3845 4.72566 66.1299 4.25036 64.3984 4.25036V3.97876H67.3691H69.4231C71.0357 3.97876 72.886 4.36919 72.886 6.30434C72.886 9.3259 68.116 8.46017 68.116 9.00338C68.116 9.1222 68.3706 9.17313 69.474 9.258C74.923 9.68238 74.1421 11.295 73.3952 13.2132Z" fill="#FCF9F1"/>
<defs>
<clipPath id="clip0_2222_320">
<rect width="52.8534" height="38.0004" fill="white" transform="translate(2.0625 0.499756)"/>
</clipPath>
</defs>
</svg>
