<svg width="270" height="64" viewBox="0 0 270 64" fill="none" xmlns="http://www.w3.org/2000/svg">
<g clip-path="url(#clip0_327_1207)">
<path d="M84.2783 7.35238C84.5529 8.0352 84.7597 8.73815 84.9446 9.36971C90.8154 29.4715 79.4931 40.3307 66.1553 40.1073L66.2469 40.1568C86.2993 44.8266 96.331 28.2432 84.2801 7.35238H84.2783Z" fill="#49492F"/>
<path d="M79.3623 26.8382C72.86 23.7206 66.6744 26.8345 62.572 28.8829C60.908 29.7488 58.1328 31.1932 57.9553 29.7397C57.3274 24.5792 78.9925 14.121 77.9399 5.47138C76.805 -3.84638 60.1831 0.816166 54.197 10.4817C52.0552 5.76611 47.951 1.28663 42.9883 0.25051C37.6832 -0.857004 34.7322 1.81934 33.9103 5.76062C32.6838 11.6387 37.2969 18.2105 44.4582 22.2488L44.515 22.2122C44.515 22.1994 44.515 22.1866 44.5168 22.1738C39.6053 18.9025 36.27 14.1741 37.1669 9.50786C37.8736 5.76611 40.9142 4.4554 44.1965 5.2151C49.5583 6.40865 52.0534 12.0158 51.3651 15.3127C51.171 16.2426 50.7299 17.0023 50.0397 17.4508C49.0567 18.0916 47.9217 17.8774 47.4806 17.795C46.481 17.6046 45.7451 17.092 45.2655 16.6472C44.9928 16.3946 44.8042 16.1639 44.6999 16.0285C44.6999 18.4503 44.6413 20.4768 44.5168 22.1738C44.526 22.1793 44.5351 22.1866 44.5443 22.1921L44.5131 22.2122C43.845 31.1657 41.295 30.8984 35.5359 30.871C35.567 30.5049 35.5633 30.1406 35.5194 29.7744C35.3254 28.1763 34.2819 27.4917 33.1195 27.6326C31.666 27.8102 29.1068 29.8184 27.2872 31.2206C22.643 34.8837 16.5892 39.6798 10.6031 37.1628C17.1054 40.2803 23.291 37.1664 27.3934 35.118C29.0574 34.2521 31.8326 32.8078 32.0101 34.2613C32.638 39.4217 10.9729 49.8799 12.0255 58.5295C13.1604 67.8473 29.7823 63.1847 35.7684 53.5192C37.9102 58.2348 42.0144 62.7143 46.9771 63.7504C52.2822 64.8579 55.2331 62.1816 56.0551 58.2403C57.2816 52.3622 52.6685 45.7904 45.5072 41.7521L45.4504 41.7887C45.4504 41.8015 45.4504 41.8143 45.4486 41.8271C50.3601 45.0984 53.6954 49.8269 52.7984 54.4931C52.0918 58.2348 49.0512 59.5455 45.7689 58.7858C40.4071 57.5923 37.912 51.9851 38.6003 48.6882C38.7944 47.7583 39.2355 46.9986 39.9257 46.5501C40.9087 45.9094 42.0437 46.1235 42.4848 46.2059C43.4844 46.3963 44.2203 46.9089 44.6999 47.3519C44.6999 47.275 44.6999 47.1999 44.6999 47.1249C43.5393 45.4682 40.9398 42.1585 38.3459 41.6752C38.009 41.6129 37.3756 41.5086 36.6782 41.7631C35.4755 42.2006 34.681 43.471 34.3405 45.1021C33.8554 47.4306 34.4046 50.4548 35.7189 53.3984C31.1278 60.4901 17.693 63.247 16.7777 55.7342C15.8295 47.9578 31.5012 40.5567 34.9098 33.1171C34.9885 32.945 35.0636 32.773 35.1277 32.6009C35.2796 32.2 35.3931 31.7973 35.4645 31.3964C41.9961 31.4458 44.4308 32.5368 44.6797 45.5725C44.6797 45.6567 44.6834 45.7373 44.6852 45.8233C44.6852 45.8874 44.6852 45.9515 44.6889 46.0155C44.6907 46.1858 44.6944 46.356 44.6962 46.5299C44.6962 46.5446 44.6962 46.5611 44.6962 46.5757C44.698 46.7569 44.6999 46.9382 44.7017 47.1231C44.98 47.5185 45.1758 47.8205 45.2692 47.967C45.2692 32.4178 47.6691 31.4128 54.8432 31.3945C54.4863 32.3373 54.3343 33.2782 54.4497 34.2228C54.6437 35.8209 55.6871 36.5056 56.8496 36.3646C58.3031 36.187 60.8622 34.1789 62.6819 32.7766C67.3261 29.1136 73.3799 24.3174 79.366 26.8345L79.3623 26.8382ZM55.0574 30.8801V30.8691C47.8467 30.8691 45.3552 31.7021 45.2674 16.8742C46.428 18.5309 49.0274 21.8406 51.6214 22.3239C51.9582 22.3861 52.5916 22.4905 53.2891 22.236C54.4918 21.7985 55.2862 20.5281 55.6267 18.897C56.1118 16.5685 55.5627 13.5443 54.2483 10.6007C58.8394 3.50898 72.2742 0.752095 73.1895 8.26488C74.1378 16.0413 58.466 23.4424 55.0574 30.882V30.8801Z" fill="#49492F"/>
<path d="M23.8098 23.8951L23.7183 23.8457C3.66586 19.174 -6.36584 35.7593 5.68501 56.6482C5.41042 55.9654 5.20356 55.2625 5.01867 54.6309C-0.85207 34.5291 10.4702 23.67 23.8098 23.8951Z" fill="#49492F"/>
</g>
<path d="M266.509 55.1142C266.509 56.5723 266.938 57.3728 269.854 57.3728V57.8302H264.793V54.7426C263.793 56.801 261.963 58.1161 259.476 58.1161C255.531 58.1161 252.329 55.0857 252.329 50.6829C252.329 46.2802 255.531 43.2498 259.476 43.2498C261.191 43.2498 262.592 43.8787 263.621 44.9365L263.65 44.9651C263.678 44.9937 263.707 45.0223 263.736 45.0795C264.336 45.7084 264.793 45.9657 264.793 44.7936V40.5338C264.793 39.0757 264.365 38.2753 261.448 38.2753V37.8178H261.734H261.763C263.135 37.8178 265.765 37.8178 266.051 36.7886H266.509V55.1142ZM259.476 57.6587C262.764 57.6587 264.793 54.5425 264.793 50.6829C264.793 46.8234 262.764 43.7072 259.476 43.7072C256.217 43.7072 254.244 46.8234 254.244 50.6829C254.244 54.5425 256.217 57.6587 259.476 57.6587Z" fill="#49492F"/>
<path d="M242.91 58.1151C238.936 58.1151 235.734 54.9703 235.734 50.682C235.734 46.3936 238.936 43.2488 242.91 43.2488C246.855 43.2488 250.057 46.3936 250.057 50.682C250.057 54.9703 246.855 58.1151 242.91 58.1151ZM242.91 57.6577C246.169 57.6577 248.142 54.5415 248.142 50.682C248.142 46.8224 246.169 43.7062 242.91 43.7062C239.622 43.7062 237.65 46.8224 237.65 50.682C237.65 54.5415 239.622 57.6577 242.91 57.6577Z" fill="#49492F"/>
<path d="M226.59 58.1151C222.616 58.1151 219.414 54.9703 219.414 50.682C219.414 46.3936 222.616 43.2488 226.59 43.2488C230.536 43.2488 233.738 46.3936 233.738 50.682C233.738 54.9703 230.536 58.1151 226.59 58.1151ZM226.59 57.6577C229.85 57.6577 231.822 54.5415 231.822 50.682C231.822 46.8224 229.85 43.7062 226.59 43.7062C223.303 43.7062 221.33 46.8224 221.33 50.682C221.33 54.5415 223.303 57.6577 226.59 57.6577Z" fill="#49492F"/>
<path d="M204.822 47.7097V40.5338C204.822 39.0757 204.393 38.2753 201.477 38.2753V37.8178H201.763C203.135 37.8178 205.794 37.8178 206.08 36.7886H206.537V47.1093C206.537 54.8855 205.165 57.3442 206.794 57.3442C207.252 57.3442 208.109 56.7438 208.109 55.4001C208.109 53.0558 206.88 50.7115 206.88 47.6811C206.88 45.1938 208.538 43.2498 211.026 43.2498C213.799 43.2498 215.943 44.4505 215.943 48.1957V55.1142C215.943 56.5723 216.372 57.3728 219.288 57.3728V57.8302H210.883V57.3728C213.799 57.3728 214.228 56.5723 214.228 55.1142V48.4816C214.228 44.9651 212.97 43.7072 211.026 43.7072C208.567 43.7072 207.338 45.7656 207.338 47.6811C207.338 50.5686 208.567 53.1416 208.567 55.4001C208.567 57.6587 207.223 58.1161 206.28 58.1161C204.908 58.1161 204.193 57.1727 204.193 56.0291C204.193 54.8569 204.822 51.6264 204.822 47.7097Z" fill="#49492F"/>
<path d="M196.967 43.2488C199.454 43.2488 200.884 44.3924 200.884 46.0505C200.884 48.9952 196.596 50.0816 196.739 51.5682H196.281C196.052 49.7671 199.169 49.1096 199.169 46.0505C199.169 44.907 198.625 43.7062 196.967 43.7062C194.509 43.7062 193.279 45.7646 193.279 47.6801C193.279 50.5676 194.509 52.5688 194.509 55.3992C194.509 57.6577 193.165 58.1151 192.221 58.1151C190.849 58.1151 190.134 57.1717 190.134 56.0281C190.134 54.856 190.763 51.6254 190.763 47.7087V46.2507C190.763 44.7926 190.335 43.9921 187.418 43.9921V43.5347H192.479V47.1083C192.479 54.8846 191.106 57.3432 192.736 57.3432C193.193 57.3432 194.051 56.7429 194.051 55.3992C194.051 52.4831 192.822 50.7106 192.822 47.6801C192.822 45.3358 194.48 43.2488 196.967 43.2488Z" fill="#49492F"/>
<path d="M180.798 58.1151C176.252 58.1151 173.193 55.2562 173.193 50.682C173.193 46.1077 176.538 43.2488 180.512 43.2488C183.285 43.2488 185.315 44.1065 185.315 45.7932C185.315 49.7385 176.424 48.6236 176.424 49.4526C176.424 49.8243 178.596 50.053 180.884 50.196C184.086 50.3961 186.544 51.2252 186.544 53.8839C186.544 55.7422 184.8 58.1151 180.798 58.1151ZM180.798 57.6577C184.772 57.6577 186.087 55.2848 186.087 53.8839C186.087 51.4825 183.657 50.8249 180.826 50.6248C178.911 50.4818 177.281 50.3675 176.481 50.053C176.109 49.9101 175.966 49.7099 175.966 49.4526C175.966 49.1953 176.195 48.9666 176.538 48.8523C178.339 48.3091 183.6 48.6235 183.6 45.7932C183.6 44.6497 182.485 43.7062 180.512 43.7062C177.224 43.7062 175.109 46.8224 175.109 50.682C175.109 54.5415 176.938 57.6577 180.798 57.6577Z" fill="#49492F"/>
<path d="M158.599 47.7097V40.5338C158.599 39.0757 158.17 38.2753 155.254 38.2753V37.8178H155.54C156.912 37.8178 159.571 37.8178 159.857 36.7886H160.315V47.1093C160.315 54.8855 158.942 57.3442 160.572 57.3442C161.029 57.3442 161.887 56.7438 161.887 55.4001C161.887 53.0558 160.658 50.7115 160.658 47.6811C160.658 45.1938 162.316 43.2498 164.803 43.2498C167.576 43.2498 169.72 44.4505 169.72 48.1957V55.1142C169.72 56.5723 170.149 57.3728 173.065 57.3728V57.8302H164.66V57.3728C167.576 57.3728 168.005 56.5723 168.005 55.1142V48.4816C168.005 44.9651 166.747 43.7072 164.803 43.7072C162.344 43.7072 161.115 45.7656 161.115 47.6811C161.115 50.5686 162.344 53.1416 162.344 55.4001C162.344 57.6587 161.001 58.1161 160.057 58.1161C158.685 58.1161 157.97 57.1727 157.97 56.0291C157.97 54.8569 158.599 51.6264 158.599 47.7097Z" fill="#49492F"/>
<path d="M148.943 44.7652C149.658 48.0244 154.661 50.3973 154.661 54.2854C154.661 56.4296 153.203 58.1164 150.916 58.1164C148.772 58.1164 147.142 57.373 147.142 54.2282V43.9933H144.826V43.5359C147.171 43.5359 148.4 41.9063 148.4 39.3619H148.857V42.8212C148.857 43.1357 149.057 43.5359 149.658 43.5359H153.546V43.9933H149.658C149.057 43.9933 148.886 44.3936 148.943 44.7652ZM150.916 57.6589C152.974 57.6589 154.203 56.2009 154.203 54.2854C154.203 51.0548 150.258 48.7963 148.857 45.9374V54.2282C148.857 56.0865 149.343 57.6589 150.916 57.6589Z" fill="#49492F"/>
<path d="M136.13 58.1151C132.156 58.1151 128.954 54.9703 128.954 50.682C128.954 46.3936 132.156 43.2488 136.13 43.2488C140.075 43.2488 143.277 46.3936 143.277 50.682C143.277 54.9703 140.075 58.1151 136.13 58.1151ZM136.13 57.6577C139.389 57.6577 141.361 54.5415 141.361 50.682C141.361 46.8224 139.389 43.7062 136.13 43.7062C132.842 43.7062 130.869 46.8224 130.869 50.682C130.869 54.5415 132.842 57.6577 136.13 57.6577Z" fill="#49492F"/>
<path d="M128.359 37.8175V38.2749C125.443 38.2749 125.014 39.0754 125.014 40.5334V55.1139C125.014 56.5719 125.443 57.3724 128.359 57.3724V57.8299H119.954V57.3724C122.87 57.3724 123.298 56.5719 123.298 55.1139V39.1898L116.523 58.2587H116.037L109.261 39.7044V55.1139C109.261 56.5719 109.69 57.3724 112.606 57.3724V57.8299H105.459V57.3724C108.375 57.3724 108.804 56.5719 108.804 55.1139V40.5334C108.804 39.0754 108.375 38.2749 105.459 38.2749V37.8175H110.519L116.952 55.7143L123.298 37.8175H128.359Z" fill="#49492F"/>
<path d="M262.072 26.1564C257.527 26.1564 254.468 23.2975 254.468 18.7233C254.468 14.149 257.813 11.2901 261.787 11.2901C264.56 11.2901 266.59 12.1478 266.59 13.8345C266.59 17.7798 257.698 16.6649 257.698 17.4939C257.698 17.8656 259.871 18.0943 262.158 18.2373C265.36 18.4374 267.819 19.2665 267.819 21.9253C267.819 23.7835 266.075 26.1564 262.072 26.1564ZM262.072 25.699C266.046 25.699 267.361 23.3261 267.361 21.9253C267.361 19.5238 264.931 18.8662 262.101 18.6661C260.186 18.5231 258.556 18.4088 257.756 18.0943C257.384 17.9514 257.241 17.7512 257.241 17.4939C257.241 17.2366 257.47 17.0079 257.813 16.8936C259.614 16.3504 264.874 16.6649 264.874 13.8345C264.874 12.691 263.759 11.7475 261.787 11.7475C258.499 11.7475 256.383 14.8637 256.383 18.7233C256.383 22.5828 258.213 25.699 262.072 25.699Z" fill="#49492F"/>
<path d="M238.203 12.0323V11.5749H246.465V12.0323C243.235 12.0323 243.035 12.5755 243.692 14.2051L246.808 21.9241C247.237 22.9819 247.638 23.3536 248.667 20.9235L251.64 13.8906C252.212 12.5755 251.812 12.0323 247.923 12.0323V11.5749H255.757V12.0323C253.327 12.0323 252.698 12.6327 252.269 13.6333L247.009 25.8694H246.551L241.662 13.6333C241.262 12.6327 240.633 12.0323 238.203 12.0323Z" fill="#49492F"/>
<path d="M235.01 8.28883C234.238 8.28883 233.637 7.68845 233.637 6.91655C233.637 6.17323 234.238 5.57286 235.01 5.57286C235.753 5.57286 236.353 6.17323 236.353 6.91655C236.353 7.68845 235.753 8.28883 235.01 8.28883ZM236.296 11.5766V23.1552C236.296 24.6132 236.725 25.4137 239.641 25.4137V25.8711H231.236V25.4137C234.152 25.4137 234.581 24.6132 234.581 23.1552V14.2925C234.581 12.8345 234.152 12.034 231.236 12.034V11.5766H236.296Z" fill="#49492F"/>
<path d="M225.509 12.8054C226.224 16.0646 231.227 18.4375 231.227 22.3256C231.227 24.4698 229.769 26.1565 227.482 26.1565C225.338 26.1565 223.708 25.4132 223.708 22.2684V12.0335H221.392V11.5761C223.737 11.5761 224.966 9.94648 224.966 7.40205H225.423V10.8613C225.423 11.1758 225.624 11.5761 226.224 11.5761H230.112V12.0335H226.224C225.624 12.0335 225.452 12.4337 225.509 12.8054ZM227.482 25.6991C229.54 25.6991 230.77 24.241 230.77 22.3256C230.77 19.095 226.824 16.8365 225.423 13.9776V22.2684C225.423 24.1267 225.909 25.6991 227.482 25.6991Z" fill="#49492F"/>
<path d="M219.602 15.8644V23.1546C219.602 24.6126 220.031 25.4131 222.947 25.4131V25.8706H217.887V22.7543C217.058 24.8985 215.314 26.1564 212.741 26.1564C210.139 26.1564 207.738 24.8985 207.738 22.4684C207.738 17.2366 216.572 18.2087 216.572 17.4939C216.572 16.8078 210.625 17.5797 210.625 14.1204C210.625 12.4051 212.626 11.2901 214.971 11.2901C218.316 11.2901 219.602 12.9197 219.602 15.8644ZM212.741 25.699C215.943 25.699 217.887 23.4691 217.887 19.8954V16.4361C217.887 14.0632 217.801 11.7475 214.971 11.7475C212.855 11.7475 212.226 12.7481 212.226 14.0347C212.226 16.236 214.742 16.4933 216.114 16.8364C216.658 16.9793 217.029 17.1223 217.029 17.4939C217.029 17.8084 216.743 17.98 216.286 18.0943C214.37 18.5517 209.653 18.7519 209.653 22.4684C209.653 24.098 210.339 25.699 212.741 25.699Z" fill="#49492F"/>
<path d="M204.974 11.2901C207.461 11.2901 208.89 12.4337 208.89 14.0918C208.89 17.0365 204.602 18.1229 204.745 19.6095H204.287C204.059 17.8084 207.175 17.1509 207.175 14.0918C207.175 12.9483 206.632 11.7475 204.974 11.7475C202.515 11.7475 201.286 13.8059 201.286 15.7214C201.286 18.6089 202.515 20.6102 202.515 23.4405C202.515 25.699 201.171 26.1564 200.228 26.1564C198.856 26.1564 198.141 25.213 198.141 24.0694C198.141 22.8973 198.77 19.6667 198.77 15.75V14.292C198.77 12.8339 198.341 12.0334 195.425 12.0334V11.576H200.485V15.1496C200.485 22.9259 199.113 25.3845 200.742 25.3845C201.2 25.3845 202.057 24.7842 202.057 23.4405C202.057 20.5244 200.828 18.7519 200.828 15.7214C200.828 13.3771 202.486 11.2901 204.974 11.2901Z" fill="#49492F"/>
<path d="M189.948 26.1564C185.402 26.1564 182.343 23.2975 182.343 18.7233C182.343 14.149 185.688 11.2901 189.662 11.2901C192.435 11.2901 194.465 12.1478 194.465 13.8345C194.465 17.7798 185.574 16.6649 185.574 17.4939C185.574 17.8656 187.746 18.0943 190.034 18.2373C193.236 18.4374 195.694 19.2665 195.694 21.9253C195.694 23.7835 193.95 26.1564 189.948 26.1564ZM189.948 25.699C193.922 25.699 195.237 23.3261 195.237 21.9253C195.237 19.5238 192.807 18.8662 189.976 18.6661C188.061 18.5231 186.431 18.4088 185.631 18.0943C185.259 17.9514 185.116 17.7512 185.116 17.4939C185.116 17.2366 185.345 17.0079 185.688 16.8936C187.489 16.3504 192.75 16.6649 192.75 13.8345C192.75 12.691 191.635 11.7475 189.662 11.7475C186.374 11.7475 184.259 14.8637 184.259 18.7233C184.259 22.5828 186.088 25.699 189.948 25.699Z" fill="#49492F"/>
<path d="M180.014 16.236V23.1546C180.014 24.6126 180.443 25.4131 183.359 25.4131V25.8706H174.954V25.4131C177.87 25.4131 178.299 24.6126 178.299 23.1546V16.5219C178.299 13.0055 177.041 11.7475 175.097 11.7475C172.638 11.7475 171.409 13.8059 171.409 15.7214C171.409 18.6089 172.638 21.1819 172.638 23.4405C172.638 25.699 171.294 26.1564 170.351 26.1564C168.979 26.1564 168.264 25.213 168.264 24.0694C168.264 22.8973 168.893 19.6667 168.893 15.75V14.292C168.893 12.8339 168.464 12.0334 165.548 12.0334V11.576H170.608V15.1496C170.608 22.9259 169.236 25.3845 170.865 25.3845C171.323 25.3845 172.181 24.7842 172.181 23.4405C172.181 21.0962 170.951 18.7519 170.951 15.7214C170.951 13.3199 172.609 11.2901 175.097 11.2901C177.87 11.2901 180.014 12.4908 180.014 16.236Z" fill="#49492F"/>
<path d="M160.07 26.1564C155.525 26.1564 152.466 23.2975 152.466 18.7233C152.466 14.149 155.811 11.2901 159.785 11.2901C162.558 11.2901 164.587 12.1478 164.587 13.8345C164.587 17.7798 155.696 16.6649 155.696 17.4939C155.696 17.8656 157.869 18.0943 160.156 18.2373C163.358 18.4374 165.817 19.2665 165.817 21.9253C165.817 23.7835 164.073 26.1564 160.07 26.1564ZM160.07 25.699C164.044 25.699 165.359 23.3261 165.359 21.9253C165.359 19.5238 162.929 18.8662 160.099 18.6661C158.184 18.5231 156.554 18.4088 155.753 18.0943C155.382 17.9514 155.239 17.7512 155.239 17.4939C155.239 17.2366 155.468 17.0079 155.811 16.8936C157.612 16.3504 162.872 16.6649 162.872 13.8345C162.872 12.691 161.757 11.7475 159.785 11.7475C156.497 11.7475 154.381 14.8637 154.381 18.7233C154.381 22.5828 156.211 25.699 160.07 25.699Z" fill="#49492F"/>
<path d="M145.808 22.8973C148.381 22.8973 151.897 23.9551 151.897 27.5001C151.897 30.6735 148.695 32.1888 144.721 32.1888C140.319 32.1888 138.117 30.1589 138.117 27.6717C138.117 26.1564 138.746 25.1558 139.69 24.241C139.49 24.2696 139.289 24.2696 139.089 24.2696C138.489 24.2696 137.374 24.0409 137.374 22.8401C137.374 21.3821 139.375 21.3535 141.519 21.525C139.69 20.6673 138.46 18.952 138.46 16.6934C138.46 13.3485 141.462 11.2901 144.521 11.2901C146.122 11.2901 147.695 11.8619 148.867 12.8911C149.582 11.9477 150.353 11.2901 150.954 11.2901C152.44 11.2901 151.669 13.2342 152.24 14.6064H151.783C151.383 13.4915 151.84 12.3479 150.782 12.3479C150.382 12.3479 149.81 12.6338 149.21 13.2342C150.039 14.1204 150.554 15.2926 150.554 16.6934C150.554 20.067 147.838 22.154 144.521 22.154C144.321 22.154 144.15 22.154 143.949 22.1254C142.063 22.011 139.089 21.4678 139.089 22.8401C139.089 24.7556 142.406 22.8973 145.808 22.8973ZM140.233 16.6934C140.233 19.5238 141.948 21.6965 144.521 21.6965C147.066 21.6965 148.695 19.5238 148.695 16.6934C148.695 13.8917 147.066 11.7475 144.521 11.7475C141.948 11.7475 140.233 13.8917 140.233 16.6934ZM144.721 31.7313C147.609 31.7313 150.039 30.359 150.039 27.5001C150.039 24.8128 147.866 23.3547 145.808 23.3547C143.463 23.3547 142.034 23.9551 140.319 24.1838C139.318 25.0986 138.575 26.1279 138.575 27.6717C138.575 29.9874 140.747 31.7313 144.721 31.7313Z" fill="#49492F"/>
<path d="M130.473 26.1564C125.927 26.1564 122.868 23.2975 122.868 18.7233C122.868 14.149 126.213 11.2901 130.187 11.2901C132.96 11.2901 134.99 12.1478 134.99 13.8345C134.99 17.7798 126.099 16.6649 126.099 17.4939C126.099 17.8656 128.272 18.0943 130.559 18.2373C133.761 18.4374 136.22 19.2665 136.22 21.9253C136.22 23.7835 134.476 26.1564 130.473 26.1564ZM130.473 25.699C134.447 25.699 135.762 23.3261 135.762 21.9253C135.762 19.5238 133.332 18.8662 130.502 18.6661C128.586 18.5231 126.957 18.4088 126.156 18.0943C125.784 17.9514 125.642 17.7512 125.642 17.4939C125.642 17.2366 125.87 17.0079 126.213 16.8936C128.014 16.3504 133.275 16.6649 133.275 13.8345C133.275 12.691 132.16 11.7475 130.187 11.7475C126.899 11.7475 124.784 14.8637 124.784 18.7233C124.784 22.5828 126.614 25.699 130.473 25.699Z" fill="#49492F"/>
<path d="M120.611 21.4113C119.468 24.3273 120.725 25.4137 123.013 25.4137V25.8712H118.867C117.752 25.8712 117.695 23.4983 118.81 21.2111C120.182 18.3522 121.126 16.4082 113.95 15.2932L112.234 15.0359C111.548 14.8929 111.262 14.6642 111.262 14.3212C111.262 14.0353 111.491 13.8066 111.834 13.7208C113.521 13.2919 118.038 13.4063 118.038 9.77549C118.038 7.23106 116.78 6.31621 113.921 6.31621H112.006C110.977 6.31621 110.519 6.48774 110.519 7.31682V23.1552C110.519 24.6132 110.948 25.4137 113.864 25.4137V25.8712H105.459V25.4137C108.375 25.4137 108.804 24.6132 108.804 23.1552V8.57475C108.804 7.1167 108.375 6.31621 105.459 6.31621V5.85878H110.462H113.921C116.637 5.85878 119.753 6.51633 119.753 9.77549C119.753 14.8644 111.72 13.4063 111.72 14.3212C111.72 14.5213 112.149 14.607 114.007 14.75C123.184 15.4647 121.869 18.1807 120.611 21.4113Z" fill="#49492F"/>
<defs>
<clipPath id="clip0_327_1207">
<rect width="89.0148" height="63.9997" fill="white" transform="translate(0.473633)"/>
</clipPath>
</defs>
</svg>
