<svg width="270" height="64" viewBox="0 0 270 64" fill="none" xmlns="http://www.w3.org/2000/svg">
  <g clip-path="url(#clip0)">
    <path d="M84.2783 7.35238C84.5529 8.0352 84.7597 8.73815 84.9446 9.36971C90.8154 29.4715 79.4931 40.3307 66.1553 40.1073L66.2469 40.1568C86.2993 44.8266 96.331 28.2432 84.2801 7.35238H84.2783Z" fill="#FCF9F1"/>
    <path d="M79.3623 26.8382C72.86 23.7206 66.6744 26.8345 62.572 28.8829C60.908 29.7488 58.1328 31.1932 57.9553 29.7397C57.3274 24.5792 78.9925 14.121 77.9399 5.47138C76.805 -3.84638 60.1831 0.816166 54.197 10.4817C52.0552 5.76611 47.951 1.28663 42.9883 0.25051C37.6832 -0.857004 34.7322 1.81934 33.9103 5.76062C32.6838 11.6387 37.2969 18.2105 44.4582 22.2488L44.515 22.2122C44.515 22.1994 44.515 22.1866 44.5168 22.1738C39.6053 18.9025 36.27 14.1741 37.1669 9.50786C37.8736 5.76611 40.9142 4.4554 44.1965 5.2151C49.5583 6.40865 52.0534 12.0158 51.3651 15.3127C51.171 16.2426 50.7299 17.0023 50.0397 17.4508C49.0567 18.0916 47.9217 17.8774 47.4806 17.795C46.481 17.6046 45.7451 17.092 45.2655 16.6472C44.9928 16.3946 44.8042 16.1639 44.6999 16.0285C44.6999 18.4503 44.6413 20.4768 44.5168 22.1738C44.526 22.1793 44.5351 22.1866 44.5443 22.1921L44.5131 22.2122C43.845 31.1657 41.295 30.8984 35.5359 30.871C35.567 30.5049 35.5633 30.1406 35.5194 29.7744C35.3254 28.1763 34.2819 27.4917 33.1195 27.6326C31.666 27.8102 29.1068 29.8184 27.2872 31.2206C22.643 34.8837 16.5892 39.6798 10.6031 37.1628C17.1054 40.2803 23.291 37.1664 27.3934 35.118C29.0574 34.2521 31.8326 32.8078 32.0101 34.2613C32.638 39.4217 10.9729 49.8799 12.0255 58.5295C13.1604 67.8473 29.7823 63.1847 35.7684 53.5192C37.9102 58.2348 42.0144 62.7143 46.9771 63.7504C52.2822 64.8579 55.2331 62.1816 56.0551 58.2403C57.2816 52.3622 52.6685 45.7904 45.5072 41.7521L45.4504 41.7887C45.4504 41.8015 45.4504 41.8143 45.4486 41.8271C50.3601 45.0984 53.6954 49.8269 52.7984 54.4931C52.0918 58.2348 49.0512 59.5455 45.7689 58.7858C40.4071 57.5923 37.912 51.9851 38.6003 48.6882C38.7944 47.7583 39.2355 46.9986 39.9257 46.5501C40.9087 45.9094 42.0437 46.1235 42.4848 46.2059C43.4844 46.3963 44.2203 46.9089 44.6999 47.3519C44.6999 47.275 44.6999 47.1999 44.6999 47.1249C43.5393 45.4682 40.9398 42.1585 38.3459 41.6752C38.009 41.6129 37.3756 41.5086 36.6782 41.7631C35.4755 42.2006 34.681 43.471 34.3405 45.1021C33.8554 47.4306 34.4046 50.4548 35.7189 53.3984C31.1278 60.4901 17.693 63.247 16.7777 55.7342C15.8295 47.9578 31.5012 40.5567 34.9098 33.1171C34.9885 32.945 35.0636 32.773 35.1277 32.6009C35.2796 32.2 35.3931 31.7973 35.4645 31.3964C41.9961 31.4458 44.4308 32.5368 44.6797 45.5725C44.6797 45.6567 44.6834 45.7373 44.6852 45.8233C44.6852 45.8874 44.6852 45.9515 44.6889 46.0155C44.6907 46.1858 44.6944 46.356 44.6962 46.5299C44.6962 46.5446 44.6962 46.5611 44.6962 46.5757C44.698 46.7569 44.6999 46.9382 44.7017 47.1231C44.98 47.5185 45.1758 47.8205 45.2692 47.967C45.2692 32.4178 47.6691 31.4128 54.8432 31.3945C54.4863 32.3373 54.3343 33.2782 54.4497 34.2228C54.6437 35.8209 55.6871 36.5056 56.8496 36.3646C58.3031 36.187 60.8622 34.1789 62.6819 32.7766C67.3261 29.1136 73.3799 24.3174 79.366 26.8345L79.3623 26.8382Z" fill="#FCF9F1"/>
  </g>
  <defs>
    <clipPath id="clip0">
      <rect width="90" height="64" fill="white"/>
    </clipPath>
  </defs>
</svg>






